<?xml version="1.0" standalone="no"?>
<!DOCTYPE svg PUBLIC "-//W3C//DTD SVG 20010904//EN"
 "http://www.w3.org/TR/2001/REC-SVG-20010904/DTD/svg10.dtd">
<svg version="1.0" xmlns="http://www.w3.org/2000/svg"
 width="600.000000pt" height="600.000000pt" viewBox="0 0 600.000000 600.000000"
 preserveAspectRatio="xMidYMid meet">

<g transform="translate(0.000000,600.000000) scale(0.100000,-0.100000)"
fill="#000000" stroke="none">
<path d="M2780 5544 c-237 -28 -417 -66 -602 -129 -366 -123 -672 -312 -957
-590 -407 -396 -657 -883 -747 -1455 -26 -163 -26 -577 -1 -738 88 -554 319
-1018 702 -1411 397 -407 882 -656 1457 -748 160 -25 576 -25 736 0 575 92
1060 341 1457 748 331 340 542 721 655 1181 54 220 65 319 65 598 0 279 -11
378 -65 598 -113 460 -324 841 -655 1181 -395 405 -883 656 -1450 746 -95 16
-512 29 -595 19z m560 -613 c821 -145 1459 -791 1597 -1617 25 -153 25 -476
-1 -629 -138 -833 -788 -1482 -1622 -1622 -152 -25 -476 -25 -628 0 -835 140
-1483 788 -1623 1623 -25 152 -25 476 0 628 113 675 564 1243 1193 1500 177
72 339 113 564 140 90 11 409 -3 520 -23z"/>
<path d="M2845 4734 c-149 -21 -194 -29 -291 -54 -306 -81 -578 -241 -804
-477 -255 -264 -406 -567 -472 -943 -17 -98 -17 -422 0 -520 69 -396 240 -722
519 -990 264 -255 567 -406 943 -472 98 -17 422 -17 520 0 376 66 679 217 943
472 279 268 450 594 519 990 17 98 17 422 0 520 -66 376 -217 679 -472 943
-263 274 -581 443 -961 513 -80 15 -381 27 -444 18z m466 -203 c310 -66 562
-204 789 -431 228 -228 363 -476 432 -794 32 -147 32 -465 0 -612 -69 -318
-204 -566 -432 -794 -228 -228 -476 -363 -794 -432 -147 -32 -465 -32 -612 0
-318 69 -566 204 -794 432 -228 228 -363 476 -432 794 -32 147 -32 465 0 612
69 318 204 566 432 794 251 252 553 403 895 449 115 16 405 5 516 -18z"/>
<path d="M2657 4223 c-4 -3 -7 -64 -7 -135 l0 -128 -295 0 -295 0 77 -155 78
-155 87 0 88 0 0 -635 0 -635 -90 0 -90 0 -75 -150 c-41 -82 -75 -152 -75
-155 0 -3 133 -5 295 -5 l295 0 0 -125 0 -125 130 0 130 0 0 125 0 125 85 0
85 0 0 -125 0 -125 125 0 125 0 0 125 0 125 73 0 c85 0 203 28 276 65 28 14
82 55 120 90 112 106 171 242 171 393 0 152 -53 276 -167 390 l-73 72 30 49
c96 155 105 363 24 525 -77 153 -207 254 -376 293 l-78 18 0 132 0 133 -125 0
-125 0 0 -135 0 -135 -85 0 -85 0 0 135 0 135 -123 0 c-68 0 -127 -3 -130 -7z
m738 -597 c60 -28 87 -56 114 -116 52 -114 1 -254 -112 -309 -41 -20 -59 -21
-370 -21 l-327 0 0 235 0 235 323 0 c317 0 323 -1 372 -24z m131 -793 c52 -28
108 -90 124 -138 33 -100 -13 -223 -104 -280 l-49 -30 -399 -3 -398 -3 0 241
0 241 393 -3 c381 -3 393 -4 433 -25z"/>
</g>
</svg>
