<?xml version="1.0" standalone="no"?>
<!DOCTYPE svg PUBLIC "-//W3C//DTD SVG 20010904//EN"
 "http://www.w3.org/TR/2001/REC-SVG-20010904/DTD/svg10.dtd">
<svg version="1.0" xmlns="http://www.w3.org/2000/svg"
 width="1106.000000pt" height="1106.000000pt" viewBox="0 0 1106.000000 1106.000000"
 preserveAspectRatio="xMidYMid meet">

<g transform="translate(0.000000,1106.000000) scale(0.100000,-0.100000)"
fill="#000000" stroke="none">
<path d="M5288 9313 c6 -2 18 -2 25 0 6 3 1 5 -13 5 -14 0 -19 -2 -12 -5z"/>
<path d="M5733 9313 c9 -2 25 -2 35 0 9 3 1 5 -18 5 -19 0 -27 -2 -17 -5z"/>
<path d="M5573 8012 c-10 -6 -13 -96 -15 -373 l-3 -364 -168 -3 -168 -2 2 367
1 368 -211 3 -211 2 -6 -26 c-4 -15 -5 -171 -2 -348 3 -176 3 -336 1 -353 l-5
-33 -424 0 -424 0 0 -229 0 -229 193 -4 c184 -3 195 -4 242 -29 30 -15 62 -42
80 -68 l30 -43 3 -991 c1 -546 0 -1007 -3 -1024 -6 -33 -71 -107 -86 -98 -4 3
-10 1 -14 -5 -4 -6 -57 -10 -130 -10 -100 0 -124 3 -129 15 -3 9 -18 15 -40
15 -50 0 -64 -31 -90 -205 -21 -144 -28 -186 -36 -225 -5 -25 -11 -64 -14 -87
l-6 -43 425 -2 426 -3 0 -358 c0 -196 2 -364 5 -372 5 -13 40 -15 215 -15
l209 0 2 368 3 367 165 0 165 0 3 -368 2 -367 213 2 212 3 5 370 5 370 130 11
c582 50 912 226 1060 564 40 91 62 185 80 333 47 396 -63 652 -347 811 -60 33
-174 76 -204 76 -42 0 -35 18 20 55 135 89 237 237 272 392 22 100 15 382 -11
458 -66 193 -187 325 -390 428 -133 67 -341 117 -580 141 l-30 3 -1 379 -2
379 -203 2 c-112 2 -210 -1 -216 -5z m167 -1227 c371 -46 536 -154 582 -380
13 -66 0 -152 -32 -215 -43 -85 -178 -183 -300 -218 -176 -52 -348 -72 -610
-72 l-200 0 0 443 c0 244 3 447 7 450 13 14 428 7 553 -8z m188 -1349 c290
-46 452 -128 533 -271 19 -33 24 -59 27 -147 4 -97 2 -111 -19 -154 -23 -45
-112 -144 -131 -144 -4 0 -25 -11 -46 -25 -55 -36 -197 -78 -362 -106 -36 -6
-72 -16 -80 -24 -29 -24 -385 -39 -414 -17 -6 5 -50 12 -98 16 -84 6 -88 5
-88 -14 0 -11 -4 -20 -10 -20 -7 0 -10 160 -10 459 0 429 1 460 18 464 43 13
580 -1 680 -17z"/>
<path d="M1731 5864 c0 -11 3 -14 6 -6 3 7 2 16 -1 19 -3 4 -6 -2 -5 -13z"/>
<path d="M1723 5730 c0 -25 2 -35 4 -22 2 12 2 32 0 45 -2 12 -4 2 -4 -23z"/>
<path d="M9312 5720 c0 -14 2 -19 5 -12 2 6 2 18 0 25 -3 6 -5 1 -5 -13z"/>
<path d="M9312 5300 c0 -19 2 -27 5 -17 2 9 2 25 0 35 -3 9 -5 1 -5 -18z"/>
<path d="M1721 5304 c0 -11 3 -14 6 -6 3 7 2 16 -1 19 -3 4 -6 -2 -5 -13z"/>
<path d="M9302 5165 c0 -16 2 -22 5 -12 2 9 2 23 0 30 -3 6 -5 -1 -5 -18z"/>
<path d="M1731 5164 c0 -11 3 -14 6 -6 3 7 2 16 -1 19 -3 4 -6 -2 -5 -13z"/>
<path d="M1742 5070 c0 -14 2 -19 5 -12 2 6 2 18 0 25 -3 6 -5 1 -5 -13z"/>
<path d="M9291 5064 c0 -11 3 -14 6 -6 3 7 2 16 -1 19 -3 4 -6 -2 -5 -13z"/>
<path d="M9282 4990 c0 -14 2 -19 5 -12 2 6 2 18 0 25 -3 6 -5 1 -5 -13z"/>
<path d="M9271 4924 c0 -11 3 -14 6 -6 3 7 2 16 -1 19 -3 4 -6 -2 -5 -13z"/>
<path d="M1771 4864 c0 -11 3 -14 6 -6 3 7 2 16 -1 19 -3 4 -6 -2 -5 -13z"/>
<path d="M9261 4864 c0 -11 3 -14 6 -6 3 7 2 16 -1 19 -3 4 -6 -2 -5 -13z"/>
<path d="M9242 4760 c0 -14 2 -19 5 -12 2 6 2 18 0 25 -3 6 -5 1 -5 -13z"/>
<path d="M9211 4624 c0 -11 3 -14 6 -6 3 7 2 16 -1 19 -3 4 -6 -2 -5 -13z"/>
<path d="M9191 4544 c0 -11 3 -14 6 -6 3 7 2 16 -1 19 -3 4 -6 -2 -5 -13z"/>
<path d="M9156 4425 c-9 -26 -7 -32 5 -12 6 10 9 21 6 23 -2 3 -7 -2 -11 -11z"/>
<path d="M5163 1733 c9 -2 23 -2 30 0 6 3 -1 5 -18 5 -16 0 -22 -2 -12 -5z"/>
<path d="M5858 1733 c7 -3 16 -2 19 1 4 3 -2 6 -13 5 -11 0 -14 -3 -6 -6z"/>
<path d="M5338 1723 c7 -3 16 -2 19 1 4 3 -2 6 -13 5 -11 0 -14 -3 -6 -6z"/>
<path d="M5688 1723 c7 -3 16 -2 19 1 4 3 -2 6 -13 5 -11 0 -14 -3 -6 -6z"/>
<path d="M10665 298 c-14 -46 -28 -102 -31 -124 -6 -36 -3 -44 16 -54 30 -16
70 -5 70 20 0 13 -7 20 -20 20 -11 0 -20 2 -20 5 0 4 42 151 56 198 4 13 0 17
-20 17 -23 0 -28 -8 -51 -82z"/>
<path d="M9707 352 c-18 -20 -23 -57 -8 -66 14 -9 41 4 41 19 0 21 16 27 57
19 l37 -7 -95 -88 c-73 -68 -91 -90 -82 -100 7 -7 49 -13 107 -15 92 -4 96 -3
112 21 19 29 15 59 -9 63 -12 3 -20 -4 -24 -17 -4 -16 -13 -21 -37 -21 -66 0
-62 14 33 96 109 95 107 103 -26 110 -78 4 -92 2 -106 -14z"/>
<path d="M2630 345 c0 -8 5 -15 10 -15 6 0 10 -41 10 -103 l0 -104 51 -1 c70
-1 98 28 90 98 -4 27 -43 52 -73 46 -28 -5 -28 -5 -28 44 0 49 -1 50 -30 50
-20 0 -30 -5 -30 -15z m120 -119 c26 -32 -7 -87 -44 -73 -16 6 -23 66 -9 80
11 12 40 8 53 -7z"/>
<path d="M2990 345 c0 -8 5 -15 10 -15 6 0 10 -37 10 -90 0 -53 -4 -90 -10
-90 -5 0 -10 -7 -10 -15 0 -11 11 -15 40 -15 29 0 40 4 40 15 0 8 -4 15 -10
15 -6 0 -10 42 -10 105 l0 105 -30 0 c-20 0 -30 -5 -30 -15z"/>
<path d="M4980 351 c0 -5 5 -11 10 -13 9 -3 -11 -116 -36 -200 -4 -12 0 -18
10 -18 9 0 16 5 16 12 0 9 3 9 12 0 34 -34 108 11 108 67 0 41 -26 64 -63 57
-32 -6 -32 -5 -11 78 5 23 3 26 -20 26 -14 0 -26 -4 -26 -9z m90 -130 c14 -28
-4 -69 -34 -77 -32 -8 -46 1 -46 29 0 54 58 88 80 48z"/>
<path d="M5570 351 c0 -5 4 -11 9 -13 6 -2 2 -37 -9 -83 -11 -44 -19 -90 -20
-103 0 -30 27 -39 48 -17 16 16 16 17 -5 10 -13 -3 -23 -4 -23 -1 0 7 39 176
46 199 4 13 0 17 -20 17 -14 0 -26 -4 -26 -9z"/>
<path d="M5970 351 c0 -5 5 -11 11 -13 9 -3 6 -32 -10 -101 -11 -54 -21 -102
-21 -107 0 -22 19 -8 29 20 12 37 19 38 31 5 5 -14 17 -28 26 -32 17 -6 52 22
40 34 -4 4 -11 1 -15 -6 -11 -17 -27 -8 -34 18 -3 13 3 23 19 31 27 15 39 39
25 53 -13 13 -31 0 -25 -18 6 -14 -40 -44 -51 -33 -3 3 1 34 10 69 20 85 19
89 -10 89 -14 0 -25 -4 -25 -9z"/>
<path d="M6280 351 c0 -5 4 -11 10 -13 6 -2 2 -36 -10 -88 -11 -47 -22 -95
-25 -107 -4 -16 -1 -23 9 -23 8 0 17 15 21 38 8 46 30 82 51 82 21 0 28 -25
15 -60 -5 -17 -8 -37 -4 -46 8 -22 47 -13 50 11 2 11 0 14 -3 8 -12 -27 -26
-13 -19 20 15 67 2 92 -44 82 -22 -6 -23 -4 -17 32 4 21 9 46 12 56 4 13 -1
17 -20 17 -14 0 -26 -4 -26 -9z"/>
<path d="M120 325 c0 -8 7 -15 15 -15 12 0 15 -16 15 -80 0 -64 -3 -80 -15
-80 -8 0 -15 -7 -15 -15 0 -19 103 -21 140 -2 29 15 38 58 16 76 -14 11 -14
15 0 36 20 31 9 74 -23 86 -13 5 -49 9 -79 9 -41 0 -54 -4 -54 -15z m116 -29
c25 -19 8 -50 -30 -54 -24 -3 -26 0 -26 32 0 40 20 48 56 22z m12 -110 c5 -22
-13 -36 -45 -36 -19 0 -23 5 -23 31 0 28 2 30 32 27 23 -2 34 -9 36 -22z"/>
<path d="M1230 325 c0 -8 7 -15 15 -15 12 0 15 -16 15 -80 0 -64 -3 -80 -15
-80 -8 0 -15 -7 -15 -15 0 -12 16 -15 80 -15 l80 0 0 30 c0 23 -4 30 -20 30
-11 0 -20 -7 -20 -15 0 -10 -10 -15 -30 -15 l-30 0 0 80 c0 64 3 80 15 80 8 0
15 7 15 15 0 11 -12 15 -45 15 -33 0 -45 -4 -45 -15z"/>
<path d="M2052 324 c-27 -19 -29 -65 -4 -86 9 -8 32 -20 50 -28 39 -15 44 -47
8 -56 -29 -7 -46 1 -46 22 0 8 -9 14 -20 14 -28 0 -26 -35 2 -54 40 -28 96
-16 118 25 18 32 2 59 -47 81 -47 21 -64 45 -42 59 24 15 46 10 52 -12 4 -13
12 -19 23 -17 26 5 28 24 5 47 -25 25 -68 27 -99 5z"/>
<path d="M3234 330 c-80 -32 -86 -158 -9 -195 42 -19 78 -19 116 1 25 12 28
18 19 29 -11 13 -15 13 -33 0 -59 -41 -143 23 -117 89 21 55 101 73 113 25 7
-28 32 -19 32 12 0 39 -67 61 -121 39z"/>
<path d="M5380 331 c0 -5 5 -11 12 -13 16 -6 -22 -178 -39 -178 -7 0 -13 -4
-13 -10 0 -14 110 -12 140 3 30 15 41 73 15 83 -13 5 -11 10 10 30 30 28 32
47 5 74 -15 15 -33 20 -75 20 -30 0 -55 -4 -55 -9z m108 -23 c29 -29 2 -68
-47 -68 -22 0 -26 16 -15 58 7 24 42 30 62 10z m-13 -104 c14 -14 14 -19 2
-38 -16 -24 -90 -37 -83 -14 2 7 7 25 10 41 7 32 44 38 71 11z"/>
<path d="M6963 320 c-40 -24 -63 -67 -63 -119 0 -57 32 -81 110 -78 58 1 59 1
65 35 3 18 9 40 12 48 4 11 -5 14 -41 14 -25 0 -46 -4 -46 -10 0 -5 14 -10 30
-10 35 0 38 -12 10 -40 -26 -26 -74 -26 -101 1 -37 37 -7 125 51 149 39 16 80
6 80 -20 0 -11 7 -20 15 -20 23 0 18 37 -7 54 -30 22 -76 20 -115 -4z"/>
<path d="M333 314 c-7 -18 11 -39 26 -30 17 11 13 46 -4 46 -9 0 -18 -7 -22
-16z"/>
<path d="M887 316 c-8 -19 15 -37 32 -26 17 10 7 40 -13 40 -7 0 -16 -6 -19
-14z"/>
<path d="M6650 306 c0 -9 7 -16 16 -16 9 0 14 5 12 12 -6 18 -28 21 -28 4z"/>
<path d="M443 304 c-7 -3 -9 -12 -6 -20 3 -8 -1 -14 -11 -14 -9 0 -16 -7 -16
-15 0 -8 7 -15 15 -15 12 0 15 -13 15 -55 0 -50 2 -55 24 -61 25 -6 46 1 46
15 0 5 -9 11 -20 14 -16 4 -20 14 -20 46 0 34 3 41 20 41 11 0 20 7 20 15 0 8
-9 15 -20 15 -13 0 -20 7 -20 20 0 20 -5 23 -27 14z"/>
<path d="M3913 290 c-3 -11 -12 -20 -19 -20 -8 0 -14 -7 -14 -15 0 -8 7 -15
15 -15 11 0 15 -12 15 -48 0 -26 5 -53 12 -60 17 -17 55 -15 62 4 8 21 9 21
-16 20 -20 -1 -23 5 -26 42 -3 37 -1 42 17 42 12 0 21 7 21 15 0 8 -9 15 -20
15 -13 0 -20 7 -20 20 0 11 -5 20 -11 20 -6 0 -13 -9 -16 -20z"/>
<path d="M9985 301 c-67 -28 -91 -137 -38 -177 22 -17 75 -18 91 -2 9 9 15 9
24 0 16 -16 53 -15 68 3 14 16 6 35 -16 35 -18 0 -18 8 2 82 8 33 13 63 10 66
-3 3 -16 0 -29 -5 -15 -7 -29 -8 -38 -2 -17 11 -47 11 -74 0z m63 -40 c10 -6
11 -19 7 -45 -9 -44 -29 -67 -53 -59 -37 14 -42 48 -11 87 21 27 35 31 57 17z"/>
<path d="M10197 299 c-21 -12 -24 -69 -2 -69 8 0 19 9 25 20 11 21 36 26 57
12 9 -6 -9 -25 -57 -61 -57 -44 -67 -56 -59 -69 9 -14 27 -17 92 -17 45 0 88
4 95 8 6 5 12 21 12 38 0 22 -5 29 -20 29 -11 0 -20 -6 -20 -14 0 -21 -15 -28
-45 -20 -33 8 -32 14 8 42 71 50 101 82 90 93 -14 14 -153 21 -176 8z"/>
<path d="M10424 285 c-9 -14 -14 -32 -10 -40 8 -22 37 -18 43 5 3 13 14 20 29
20 42 0 34 -18 -31 -66 -93 -71 -89 -83 34 -89 74 -4 81 -3 96 17 19 29 19 47
-1 55 -10 4 -23 -2 -33 -15 -13 -18 -22 -20 -45 -14 l-29 8 67 53 c88 70 85
82 -21 87 -79 3 -84 2 -99 -21z"/>
<path d="M10815 300 c-65 -27 -92 -117 -48 -161 39 -39 153 -35 153 6 0 21
-16 26 -44 14 -20 -9 -32 -9 -51 -1 -38 17 -32 35 9 28 35 -7 85 7 98 27 4 7
8 24 8 39 0 44 -70 71 -125 48z m72 -45 c8 -21 -1 -28 -37 -28 -39 0 -50 11
-26 29 26 18 55 18 63 -1z"/>
<path d="M320 255 c0 -8 5 -15 10 -15 6 0 10 -20 10 -45 0 -25 -4 -45 -10 -45
-5 0 -10 -7 -10 -15 0 -10 11 -15 35 -15 24 0 35 5 35 15 0 8 -4 15 -10 15 -6
0 -10 27 -10 60 0 57 -1 60 -25 60 -16 0 -25 -6 -25 -15z"/>
<path d="M562 247 c-58 -62 11 -152 92 -121 27 10 20 35 -8 28 -53 -13 -89 23
-66 66 14 26 46 26 53 0 8 -29 37 -26 37 5 0 47 -71 61 -108 22z"/>
<path d="M726 249 c-34 -27 -36 -77 -3 -107 49 -46 121 -14 121 53 0 67 -64
96 -118 54z m72 -21 c7 -7 12 -21 12 -33 0 -46 -53 -62 -71 -21 -21 45 26 87
59 54z"/>
<path d="M870 255 c0 -8 5 -15 10 -15 6 0 10 -20 10 -45 0 -25 -4 -45 -10 -45
-5 0 -10 -7 -10 -15 0 -11 11 -15 40 -15 29 0 40 4 40 15 0 8 -4 15 -10 15 -6
0 -10 27 -10 60 l0 60 -30 0 c-20 0 -30 -5 -30 -15z"/>
<path d="M970 255 c0 -8 5 -15 10 -15 6 0 10 -20 10 -45 0 -25 -4 -45 -10 -45
-5 0 -10 -7 -10 -15 0 -11 11 -15 40 -15 29 0 40 4 40 15 0 8 -4 15 -10 15 -5
0 -10 18 -10 39 0 31 4 41 21 46 26 9 30 5 36 -44 4 -27 2 -41 -6 -41 -6 0
-11 -7 -11 -15 0 -10 11 -15 35 -15 24 0 35 5 35 15 0 8 -4 15 -10 15 -5 0
-10 23 -10 50 0 43 -3 52 -24 61 -17 8 -30 8 -47 -1 -17 -10 -24 -10 -27 -1
-6 17 -52 14 -52 -4z"/>
<path d="M1435 245 c-14 -13 -25 -36 -25 -50 0 -33 42 -75 75 -75 33 0 75 42
75 75 0 33 -42 75 -75 75 -14 0 -37 -11 -50 -25z m84 -27 c13 -36 -2 -63 -34
-63 -32 0 -47 27 -34 63 6 15 17 22 34 22 17 0 28 -7 34 -22z"/>
<path d="M1611 254 c-32 -23 -30 -98 4 -120 16 -10 34 -14 51 -10 21 6 25 4
22 -11 -3 -19 -58 -32 -58 -14 0 6 -7 11 -15 11 -22 0 -19 -27 4 -40 30 -16
66 -12 85 9 13 14 17 37 17 90 0 39 5 71 10 71 5 0 9 6 9 14 0 20 -100 20
-129 0z m74 -59 c0 -43 -22 -58 -50 -35 -32 27 -10 84 30 78 16 -2 20 -11 20
-43z"/>
<path d="M1796 249 c-34 -27 -36 -77 -3 -107 49 -46 121 -14 121 53 0 67 -64
96 -118 54z m72 -21 c7 -7 12 -21 12 -33 0 -46 -53 -62 -71 -21 -21 45 26 87
59 54z"/>
<path d="M2180 255 c0 -8 4 -15 10 -15 5 0 21 -23 36 -51 21 -41 24 -57 16
-74 -6 -13 -19 -22 -29 -22 -24 2 -24 -27 0 -31 28 -6 51 21 87 101 18 40 39
76 47 80 22 13 5 27 -33 27 -23 0 -34 -5 -34 -14 0 -8 4 -16 9 -18 5 -1 3 -19
-5 -38 l-15 -35 -15 34 c-10 24 -11 38 -4 45 19 19 10 26 -30 26 -29 0 -40 -4
-40 -15z"/>
<path d="M2370 255 c0 -8 5 -15 10 -15 6 0 10 -20 10 -45 0 -25 -4 -45 -10
-45 -5 0 -10 -7 -10 -15 0 -10 11 -15 35 -15 24 0 35 5 35 15 0 8 -4 15 -10
15 -5 0 -10 13 -10 29 0 31 25 64 44 58 14 -5 21 -87 7 -87 -6 0 -11 -7 -11
-15 0 -10 11 -15 35 -15 24 0 35 5 35 15 0 8 -4 15 -10 15 -5 0 -10 16 -10 35
0 35 29 63 50 50 13 -8 13 -85 0 -85 -5 0 -10 -7 -10 -15 0 -10 11 -15 35 -15
24 0 35 5 35 15 0 8 -5 15 -10 15 -6 0 -9 20 -8 46 2 61 -19 83 -63 67 -24 -9
-35 -9 -50 0 -15 9 -24 9 -41 -2 -16 -10 -23 -10 -26 -2 -6 17 -52 14 -52 -4z"/>
<path d="M2845 245 c-14 -13 -25 -36 -25 -50 0 -33 42 -75 75 -75 14 0 37 11
50 25 14 13 25 36 25 50 0 33 -42 75 -75 75 -14 0 -37 -11 -50 -25z m84 -27
c9 -25 4 -55 -11 -64 -18 -11 -56 6 -61 28 -14 51 54 85 72 36z"/>
<path d="M3390 255 c0 -8 5 -15 10 -15 6 0 10 -20 10 -45 0 -25 -4 -45 -10
-45 -5 0 -10 -7 -10 -15 0 -11 11 -15 40 -15 29 0 40 4 40 15 0 8 -7 15 -15
15 -10 0 -15 10 -15 29 0 32 20 54 46 49 23 -4 31 30 9 38 -9 4 -24 -1 -35
-11 -18 -16 -20 -17 -20 -2 0 11 -8 17 -25 17 -16 0 -25 -6 -25 -15z"/>
<path d="M3520 255 c0 -8 5 -15 10 -15 6 0 21 -25 35 -56 28 -63 22 -97 -16
-87 -17 5 -20 2 -17 -13 4 -23 34 -30 54 -13 8 7 31 48 51 91 20 43 40 78 44
78 5 0 9 7 9 15 0 10 -11 15 -35 15 -24 0 -35 -5 -35 -15 0 -8 4 -15 10 -15 5
0 2 -16 -7 -35 l-17 -36 -14 27 c-11 20 -11 32 -3 50 10 23 9 24 -29 24 -29 0
-40 -4 -40 -15z"/>
<path d="M3700 255 c0 -8 5 -15 10 -15 6 0 10 -32 10 -75 0 -43 -4 -75 -10
-75 -5 0 -10 -7 -10 -15 0 -11 11 -15 40 -15 29 0 40 4 40 15 0 8 -4 15 -10
15 -5 0 -10 9 -10 20 0 13 5 18 15 14 47 -18 98 36 87 92 -7 37 -29 48 -98 51
-51 2 -64 -1 -64 -12z m120 -29 c26 -32 -7 -87 -44 -73 -16 6 -23 66 -9 80 11
12 40 8 53 -7z"/>
<path d="M4036 249 c-34 -27 -36 -77 -3 -107 49 -46 121 -14 121 53 0 67 -64
96 -118 54z m72 -21 c7 -7 12 -21 12 -33 0 -46 -53 -62 -71 -21 -21 45 26 87
59 54z"/>
<path d="M4209 251 c-50 -40 -18 -131 46 -131 34 0 55 10 55 26 0 10 -8 12
-30 8 -35 -8 -60 9 -60 40 0 27 18 46 42 46 11 0 18 -7 18 -20 0 -24 28 -27
37 -3 8 20 -30 53 -62 53 -13 0 -33 -8 -46 -19z"/>
<path d="M4340 255 c0 -8 5 -15 10 -15 6 0 10 -18 10 -41 0 -22 5 -49 10 -60
12 -22 49 -25 69 -6 11 10 14 10 18 0 7 -19 53 -16 53 2 0 8 -4 15 -10 15 -6
0 -10 27 -10 60 l0 60 -30 0 c-20 0 -30 -5 -30 -15 0 -8 5 -15 10 -15 6 0 10
-18 10 -39 0 -32 -4 -41 -21 -46 -28 -9 -39 9 -39 68 0 43 -2 47 -25 47 -16 0
-25 -6 -25 -15z"/>
<path d="M4530 255 c0 -8 5 -15 10 -15 6 0 10 -20 10 -45 0 -25 -4 -45 -10
-45 -5 0 -10 -7 -10 -15 0 -11 11 -15 40 -15 29 0 40 4 40 15 0 8 -7 15 -15
15 -10 0 -15 10 -15 28 0 34 16 52 47 52 14 0 23 6 23 15 0 24 -29 29 -50 10
-18 -16 -20 -17 -20 -2 0 11 -8 17 -25 17 -16 0 -25 -6 -25 -15z"/>
<path d="M5120 254 c0 -3 6 -12 14 -19 8 -8 17 -38 21 -67 7 -46 5 -54 -14
-69 -12 -10 -30 -15 -42 -12 -16 4 -20 2 -17 -8 11 -32 41 -20 98 39 62 66 90
116 72 134 -14 14 -35 0 -28 -19 4 -8 -4 -32 -16 -52 l-23 -36 -9 58 c-8 51
-12 57 -33 57 -12 0 -23 -3 -23 -6z"/>
<path d="M5656 229 c-31 -37 -33 -62 -6 -89 27 -27 66 -25 95 5 46 45 23 115
-37 115 -17 0 -36 -11 -52 -31z m82 -1 c17 -17 15 -42 -6 -68 -26 -32 -72 -21
-72 17 0 48 49 80 78 51z"/>
<path d="M5843 248 c-31 -15 -49 -62 -35 -93 12 -27 49 -40 81 -30 34 10 24
22 -16 21 -35 -1 -38 1 -41 30 -3 35 18 64 49 64 10 0 19 -7 19 -15 0 -8 7
-15 15 -15 18 0 20 21 3 38 -14 14 -45 14 -75 0z"/>
<path d="M6137 240 c-65 -51 -25 -140 52 -115 30 9 26 27 -4 19 -49 -12 -75
45 -37 79 23 21 52 22 52 2 0 -15 21 -21 33 -8 11 11 -25 43 -48 43 -12 0 -34
-9 -48 -20z"/>
<path d="M6455 235 c-27 -26 -34 -82 -13 -103 16 -16 50 -15 67 1 11 10 14 10
18 0 7 -18 38 -16 54 3 12 15 11 16 -9 10 -26 -9 -26 -7 -8 62 12 45 12 52 0
52 -8 0 -14 -5 -14 -10 0 -7 -6 -7 -19 0 -30 16 -50 12 -76 -15z m74 -9 c31
-37 -28 -106 -64 -76 -17 14 -13 53 7 77 14 17 43 16 57 -1z"/>
<path d="M6620 251 c0 -5 5 -11 11 -13 8 -3 8 -16 -1 -47 -6 -24 -9 -49 -6
-57 7 -19 31 -18 47 2 12 15 11 16 -9 10 -21 -7 -22 -5 -16 21 4 15 11 38 15
51 14 36 11 42 -16 42 -14 0 -25 -4 -25 -9z"/>
<path d="M6710 250 c0 -5 6 -10 14 -10 12 0 12 -7 0 -52 -17 -64 -17 -71 -3
-66 6 2 18 26 28 52 18 55 43 78 62 59 10 -10 10 -22 0 -54 -8 -27 -9 -45 -3
-51 14 -14 52 0 52 19 0 13 -2 13 -17 2 -15 -13 -16 -11 -9 21 17 76 4 101
-44 83 -17 -6 -30 -7 -30 -2 0 5 -11 9 -25 9 -14 0 -25 -4 -25 -10z"/>
<path d="M7153 245 c-13 -9 -25 -32 -29 -52 -6 -31 -3 -39 16 -55 28 -22 73
-23 91 -2 12 15 11 16 -9 10 -31 -10 -72 1 -72 19 0 11 12 15 49 15 41 0 50 3
54 21 7 26 -24 59 -56 59 -12 0 -32 -7 -44 -15z m75 -27 c3 -15 -4 -18 -37
-18 -46 0 -48 2 -25 25 21 20 58 16 62 -7z"/>
<path d="M7306 239 c-20 -15 -26 -29 -26 -58 0 -20 5 -42 12 -49 15 -15 50
-16 65 -1 8 8 17 7 32 -2 18 -12 23 -11 38 5 17 17 17 18 -4 11 -27 -8 -27 -6
-9 63 12 45 12 52 0 52 -8 0 -14 -5 -14 -10 0 -7 -6 -7 -19 0 -29 15 -45 12
-75 -11z m74 -14 c31 -37 -29 -105 -65 -75 -17 14 -13 53 7 77 14 17 43 16 58
-2z"/>
<path d="M7470 251 c0 -5 5 -11 11 -13 7 -2 6 -21 -4 -61 -13 -48 -13 -57 -1
-57 7 0 16 12 19 28 3 15 12 39 20 55 8 15 12 34 9 42 -7 16 -54 21 -54 6z"/>
<path d="M7535 250 c-8 -12 20 -24 35 -15 6 3 8 11 5 16 -8 12 -32 12 -40 -1z"/>
<path d="M4664 155 c-4 -9 -2 -21 4 -27 15 -15 44 -1 40 19 -4 23 -36 29 -44
8z"/>
<path d="M4743 154 c-8 -21 13 -42 28 -27 13 13 5 43 -11 43 -6 0 -13 -7 -17
-16z"/>
<path d="M4814 155 c-4 -9 -2 -21 4 -27 15 -15 44 -1 40 19 -4 23 -36 29 -44
8z"/>
</g>
</svg>
